<svg xmlns="http://www.w3.org/2000/svg" xmlns:xlink="http://www.w3.org/1999/xlink" width="1000" zoomAndPan="magnify" viewBox="0 0 750 374.999991" height="500" preserveAspectRatio="xMidYMid meet" version="1.0"><defs><g/></defs><rect x="-75" width="900" fill="#ffffff" y="-37.499999" height="449.999989" fill-opacity="1"/><rect x="-75" width="900" fill="#ffffff" y="-37.499999" height="449.999989" fill-opacity="1"/><rect x="-75" width="900" fill="#ffffff" y="-37.499999" height="449.999989" fill-opacity="1"/><g fill="#000000" fill-opacity="1"><g transform="translate(42.451995, 240.694817)"><g><path d="M 12.257812 0 L 93.578125 0 L 93.578125 -27.328125 L 45.382812 -27.328125 L 45.382812 -45.214844 L 87.285156 -45.214844 L 87.285156 -72.046875 L 45.382812 -72.046875 L 45.382812 -88.941406 L 91.753906 -88.941406 L 91.753906 -115.9375 L 12.257812 -115.9375 Z M 12.257812 0 "/></g></g></g><g fill="#000000" fill-opacity="1"><g transform="translate(143.438477, 240.694817)"><g><path d="M 12.257812 0 L 93.082031 0 L 93.082031 -30.972656 L 45.710938 -30.972656 L 45.710938 -115.9375 L 12.257812 -115.9375 Z M 12.257812 0 "/></g></g></g><g fill="#000000" fill-opacity="1"><g transform="translate(240.617298, 240.694817)"><g><path d="M 12.257812 0 L 45.710938 0 L 45.710938 -34.449219 L 84.46875 -34.449219 L 84.46875 -63.433594 L 45.710938 -63.433594 L 45.710938 -86.125 L 88.773438 -86.125 L 88.773438 -115.9375 L 12.257812 -115.9375 Z M 12.257812 0 "/></g></g></g><g fill="#000000" fill-opacity="1"><g transform="translate(335.643911, 240.694817)"><g><path d="M 53.828125 2.484375 C 82.644531 2.484375 99.707031 -11.097656 99.707031 -33.953125 C 99.707031 -53.164062 87.285156 -64.429688 59.128906 -70.722656 C 44.222656 -74.035156 38.757812 -77.679688 38.757812 -83.640625 C 38.757812 -89.269531 43.726562 -92.75 51.507812 -92.75 C 60.785156 -92.75 66.085938 -87.945312 66.085938 -79.167969 L 97.550781 -79.167969 C 97.550781 -103.019531 79.335938 -118.421875 50.847656 -118.421875 C 23.519531 -118.421875 6.625 -104.839844 6.625 -82.976562 C 6.625 -63.433594 19.378906 -51.34375 45.546875 -46.375 C 59.625 -43.558594 66.414062 -39.253906 66.414062 -32.628906 C 66.414062 -26.832031 61.445312 -23.519531 53.332031 -23.519531 C 43.726562 -23.519531 38.09375 -28.652344 38.09375 -37.597656 L 5.796875 -37.597656 C 5.796875 -12.585938 23.683594 2.484375 53.828125 2.484375 Z M 53.828125 2.484375 "/></g></g></g><g fill="#000000" fill-opacity="1"><g transform="translate(441.431383, 240.694817)"><g/></g></g><g fill="#000000" fill-opacity="1"><g transform="translate(479.673823, 240.694817)"><g><path d="M 12.257812 0 L 45.710938 0 L 45.710938 -34.449219 L 84.46875 -34.449219 L 84.46875 -63.433594 L 45.710938 -63.433594 L 45.710938 -86.125 L 88.773438 -86.125 L 88.773438 -115.9375 L 12.257812 -115.9375 Z M 12.257812 0 "/></g></g></g><g fill="#000000" fill-opacity="1"><g transform="translate(574.700436, 240.694817)"><g><path d="M 66.414062 2.484375 C 98.378906 2.484375 122.5625 -16.894531 127.53125 -46.375 L 93.578125 -46.375 C 89.4375 -35.445312 79.664062 -28.488281 67.078125 -28.488281 C 50.847656 -28.488281 39.585938 -40.578125 39.585938 -57.96875 C 39.585938 -75.523438 51.011719 -87.449219 67.410156 -87.449219 C 79.5 -87.449219 89.601562 -80.660156 93.082031 -70.226562 L 126.867188 -70.226562 C 120.90625 -99.539062 97.054688 -118.421875 66.085938 -118.421875 C 30.308594 -118.421875 5.632812 -93.742188 5.632812 -57.96875 C 5.632812 -22.195312 30.308594 2.484375 66.414062 2.484375 Z M 66.414062 2.484375 "/></g></g></g></svg>